<svg width="445" height="445" viewBox="0 0 445 445" fill="none" xmlns="http://www.w3.org/2000/svg">
<path d="M353.262 332.679L345.342 340.599L355.404 350.661L363.324 342.742L353.262 332.679Z" fill="black"/>
<path d="M326.354 305.752L305.296 326.81L315.359 336.872L336.416 315.814L326.354 305.752Z" fill="black"/>
<path d="M324.33 222.27C324.33 221.31 324.71 220.38 325.39 219.7L444.54 100.55L343.98 0L224.83 119.15C224.15 119.83 223.23 120.21 222.26 120.21C221.29 120.21 220.37 119.83 219.69 119.15L100.56 0L0 100.56L119.15 219.71C119.83 220.39 120.21 221.31 120.21 222.28C120.21 223.25 119.83 224.17 119.15 224.85L0 343.98L100.56 444.54L219.71 325.39C220.39 324.71 221.31 324.33 222.28 324.33C223.25 324.33 224.17 324.71 224.85 325.39L344 444.54L444.56 343.98L325.41 224.83C324.73 224.15 324.35 223.23 324.35 222.26L324.33 222.27ZM71.35 103.84L103.38 71.81L109.54 77.97L77.51 110L71.35 103.84ZM98.64 131.13L107.07 102.58L88.58 121.07L82.42 114.91L114.45 82.88L120.61 89.04L112.71 117.06L130.67 99.1L136.45 104.88L104.42 136.91L98.64 131.13ZM109.33 141.82L114.82 136.33L131.04 152.55L138.96 144.63L122.74 128.41L141.36 109.79L163.35 131.78L157.86 137.27L142.02 121.43L134.1 129.35L149.94 145.19L131.32 163.81L109.33 141.82ZM144.56 177.05L171.1 150.51L162.78 142.19L168.27 136.7L190.26 158.69L184.77 164.18L177.25 156.66L150.71 183.2L144.55 177.04L144.56 177.05ZM163.15 195.64L195.18 163.61L201.34 169.77L169.31 201.8L163.15 195.64ZM182.55 215.04L209.09 188.5L200.77 180.18L206.26 174.69L228.25 196.68L222.76 202.17L215.24 194.65L188.7 221.19L182.54 215.03L182.55 215.04ZM201.14 233.63L233.17 201.6L239.33 207.76L212.79 234.3L222.85 244.36L249.39 217.82L255.17 223.6L223.14 255.63L201.14 233.63ZM236.37 268.86L262.91 242.32L254.59 234L260.08 228.51L282.07 250.5L276.58 255.99L269.06 248.47L242.52 275.01L236.36 268.85L236.37 268.86ZM272.9 305.39L266.74 299.23L298.77 267.2L320.76 289.19L315.27 294.68L299.43 278.84L291.51 286.76L307.35 302.6L302.13 307.82L286.29 291.98L272.88 305.39H272.9ZM374.59 343.02L355.97 361.64L348.45 354.12L342.56 375.04L336.78 369.26L342.29 347.96L340.13 345.8L326.72 359.21L320.56 353.05L352.59 321.02L374.58 343.01L374.59 343.02ZM347.68 316.11L315.65 348.14L293.66 326.15L325.69 294.12L347.68 316.11Z" fill="black"/>
</svg>
